# xmcd
#
# Track frame offsets: 
#        150
#        20745
#        37390
#        53027
#        69825
#        85815
#        103517
#        120267
#        137652
#        154922
#        171387
#        189280
#
# Disc length: 2751 seconds
#
# Revision: 0
# Processed by: cddbd v1.5.2PL0 Copyright (c) Steve Scherf et al.
# Submitted via: ExactAudioCopy v0.95b3
#
DISCID=9c0abd0c
DTITLE=Jintara - 03 Mor lam sa on Namta lon bon tiang na
DYEAR=2000
DGENRE=Mor lam
TTITLE0=Namta lon bon tiang na
TTITLE1=Ngao jai nai tangdaen
TTITLE2=Nok tum rong nong sa-uen
TTITLE3=Rak rao ti bueng plan
TTITLE4=Dueanngai ai sanya
TTITLE5=Nang suem tai ton mayom
TTITLE6=Mo Chit Song nong khoi
TTITLE7=Awn ai khai na
TTITLE8=Sang puchai lai mia
TTITLE9=Rai khaophot grot pi
TTITLE10=Paw si pi mai mong
TTITLE11=Khon sam jai gai samkha
EXTD=
EXTT0=
EXTT1=
EXTT2=
EXTT3=
EXTT4=
EXTT5=
EXTT6=
EXTT7=
EXTT8=
EXTT9=
EXTT10=
EXTT11=
PLAYORDER=
